<svg width="353" height="49" viewBox="0 0 353 49" fill="none" xmlns="http://www.w3.org/2000/svg">
<rect x="0.5" y="0.5" width="279" height="47" rx="13.5" fill="#FBF9F7" stroke="#FBF9F7"/>
<path d="M27.893 28.92L30.973 32M30.084 23.581C30.084 27.768 26.701 31.162 22.529 31.162C18.356 31.162 14.973 27.768 14.973 23.582C14.973 19.393 18.356 16 22.528 16C26.701 16 30.084 19.394 30.084 23.581Z" stroke="black" stroke-width="1.5" stroke-linecap="round" stroke-linejoin="round"/>
<path d="M52.448 21.536C52.384 21.648 52.3147 21.7307 52.24 21.784C52.1707 21.832 52.0827 21.856 51.976 21.856C51.864 21.856 51.7413 21.816 51.608 21.736C51.48 21.6507 51.3253 21.5573 51.144 21.456C50.9627 21.3547 50.7493 21.264 50.504 21.184C50.264 21.0987 49.9787 21.056 49.648 21.056C49.3493 21.056 49.088 21.0933 48.864 21.168C48.64 21.2373 48.4507 21.336 48.296 21.464C48.1467 21.592 48.0347 21.7467 47.96 21.928C47.8853 22.104 47.848 22.2987 47.848 22.512C47.848 22.784 47.9227 23.0107 48.072 23.192C48.2267 23.3733 48.4293 23.528 48.68 23.656C48.9307 23.784 49.216 23.8987 49.536 24C49.856 24.1013 50.184 24.2107 50.52 24.328C50.856 24.44 51.184 24.5733 51.504 24.728C51.824 24.8773 52.1093 25.0693 52.36 25.304C52.6107 25.5333 52.8107 25.816 52.96 26.152C53.1147 26.488 53.192 26.896 53.192 27.376C53.192 27.8987 53.1013 28.3893 52.92 28.848C52.744 29.3013 52.4827 29.6987 52.136 30.04C51.7947 30.376 51.376 30.6427 50.88 30.84C50.384 31.032 49.816 31.128 49.176 31.128C48.808 31.128 48.4453 31.0907 48.088 31.016C47.7307 30.9467 47.3867 30.8453 47.056 30.712C46.7307 30.5787 46.424 30.4187 46.136 30.232C45.848 30.0453 45.592 29.8373 45.368 29.608L46 28.576C46.0533 28.5013 46.1227 28.44 46.208 28.392C46.2933 28.3387 46.384 28.312 46.48 28.312C46.6133 28.312 46.7573 28.368 46.912 28.48C47.0667 28.5867 47.2507 28.7067 47.464 28.84C47.6773 28.9733 47.9253 29.096 48.208 29.208C48.496 29.3147 48.84 29.368 49.24 29.368C49.8533 29.368 50.328 29.224 50.664 28.936C51 28.6427 51.168 28.224 51.168 27.68C51.168 27.376 51.0907 27.128 50.936 26.936C50.7867 26.744 50.5867 26.584 50.336 26.456C50.0853 26.3227 49.8 26.2107 49.48 26.12C49.16 26.0293 48.8347 25.9307 48.504 25.824C48.1733 25.7173 47.848 25.5893 47.528 25.44C47.208 25.2907 46.9227 25.096 46.672 24.856C46.4213 24.616 46.2187 24.3173 46.064 23.96C45.9147 23.5973 45.84 23.152 45.84 22.624C45.84 22.2027 45.9227 21.792 46.088 21.392C46.2587 20.992 46.504 20.6373 46.824 20.328C47.144 20.0187 47.5387 19.7707 48.008 19.584C48.4773 19.3973 49.016 19.304 49.624 19.304C50.3067 19.304 50.936 19.4107 51.512 19.624C52.088 19.8373 52.5787 20.136 52.984 20.52L52.448 21.536ZM60.014 25.952C60.014 25.696 59.9767 25.456 59.902 25.232C59.8327 25.0027 59.726 24.8027 59.582 24.632C59.438 24.4613 59.254 24.328 59.03 24.232C58.8113 24.1307 58.5553 24.08 58.262 24.08C57.6913 24.08 57.2407 24.2427 56.91 24.568C56.5847 24.8933 56.3767 25.3547 56.286 25.952H60.014ZM56.246 27.144C56.278 27.5653 56.3527 27.9307 56.47 28.24C56.5873 28.544 56.742 28.7973 56.934 29C57.126 29.1973 57.3527 29.3467 57.614 29.448C57.8807 29.544 58.174 29.592 58.494 29.592C58.814 29.592 59.0887 29.5547 59.318 29.48C59.5527 29.4053 59.7553 29.3227 59.926 29.232C60.102 29.1413 60.254 29.0587 60.382 28.984C60.5153 28.9093 60.6433 28.872 60.766 28.872C60.9313 28.872 61.054 28.9333 61.134 29.056L61.702 29.776C61.4833 30.032 61.238 30.248 60.966 30.424C60.694 30.5947 60.4087 30.7333 60.11 30.84C59.8167 30.9413 59.5153 31.0133 59.206 31.056C58.902 31.0987 58.606 31.12 58.318 31.12C57.7473 31.12 57.2167 31.0267 56.726 30.84C56.2353 30.648 55.8087 30.368 55.446 30C55.0833 29.6267 54.798 29.168 54.59 28.624C54.382 28.0747 54.278 27.44 54.278 26.72C54.278 26.16 54.3687 25.6347 54.55 25.144C54.7313 24.648 54.99 24.2187 55.326 23.856C55.6673 23.488 56.0807 23.1973 56.566 22.984C57.0567 22.7707 57.6087 22.664 58.222 22.664C58.7393 22.664 59.2167 22.7467 59.654 22.912C60.0913 23.0773 60.4673 23.32 60.782 23.64C61.0967 23.9547 61.342 24.344 61.518 24.808C61.6993 25.2667 61.79 25.792 61.79 26.384C61.79 26.6827 61.758 26.8853 61.694 26.992C61.63 27.0933 61.5073 27.144 61.326 27.144H56.246ZM67.6089 27.496C67.0382 27.5227 66.5582 27.5733 66.1689 27.648C65.7795 27.7173 65.4675 27.808 65.2329 27.92C64.9982 28.032 64.8302 28.1627 64.7289 28.312C64.6275 28.4613 64.5769 28.624 64.5769 28.8C64.5769 29.1467 64.6782 29.3947 64.8809 29.544C65.0889 29.6933 65.3582 29.768 65.6889 29.768C66.0942 29.768 66.4435 29.696 66.7369 29.552C67.0355 29.4027 67.3262 29.1787 67.6089 28.88V27.496ZM63.0809 23.936C64.0249 23.072 65.1609 22.64 66.4889 22.64C66.9689 22.64 67.3982 22.72 67.7769 22.88C68.1555 23.0347 68.4755 23.2533 68.7369 23.536C68.9982 23.8133 69.1955 24.1467 69.3289 24.536C69.4675 24.9253 69.5369 25.352 69.5369 25.816V31H68.6409C68.4542 31 68.3102 30.9733 68.2089 30.92C68.1075 30.8613 68.0275 30.7467 67.9689 30.576L67.7929 29.984C67.5849 30.1707 67.3822 30.336 67.1849 30.48C66.9875 30.6187 66.7822 30.736 66.5689 30.832C66.3555 30.928 66.1262 31 65.8809 31.048C65.6409 31.1013 65.3742 31.128 65.0809 31.128C64.7342 31.128 64.4142 31.0827 64.1209 30.992C63.8275 30.896 63.5742 30.7547 63.3609 30.568C63.1475 30.3813 62.9822 30.1493 62.8649 29.872C62.7475 29.5947 62.6889 29.272 62.6889 28.904C62.6889 28.696 62.7235 28.4907 62.7929 28.288C62.8622 28.08 62.9742 27.8827 63.1289 27.696C63.2889 27.5093 63.4942 27.3333 63.7449 27.168C63.9955 27.0027 64.3022 26.8587 64.6649 26.736C65.0329 26.6133 65.4595 26.5147 65.9449 26.44C66.4302 26.36 66.9849 26.312 67.6089 26.296V25.816C67.6089 25.2667 67.4915 24.8613 67.2569 24.6C67.0222 24.3333 66.6835 24.2 66.2409 24.2C65.9209 24.2 65.6542 24.2373 65.4409 24.312C65.2329 24.3867 65.0489 24.472 64.8889 24.568C64.7289 24.6587 64.5822 24.7413 64.4489 24.816C64.3209 24.8907 64.1769 24.928 64.0169 24.928C63.8782 24.928 63.7609 24.8933 63.6649 24.824C63.5689 24.7493 63.4915 24.664 63.4329 24.568L63.0809 23.936ZM73.2619 24.216C73.5179 23.7253 73.8219 23.3413 74.1739 23.064C74.5259 22.7813 74.9419 22.64 75.4219 22.64C75.8005 22.64 76.1045 22.7227 76.3339 22.888L76.2059 24.368C76.1792 24.464 76.1392 24.5333 76.0859 24.576C76.0379 24.6133 75.9712 24.632 75.8859 24.632C75.8059 24.632 75.6859 24.6187 75.5259 24.592C75.3712 24.5653 75.2192 24.552 75.0699 24.552C74.8512 24.552 74.6565 24.584 74.4859 24.648C74.3152 24.712 74.1605 24.8053 74.0219 24.928C73.8885 25.0453 73.7685 25.1893 73.6619 25.36C73.5605 25.5307 73.4645 25.7253 73.3739 25.944V31H71.3979V22.792H72.5579C72.7605 22.792 72.9019 22.8293 72.9819 22.904C73.0619 22.9733 73.1152 23.1013 73.1419 23.288L73.2619 24.216ZM83.0123 24.528C82.9536 24.6027 82.8949 24.6613 82.8363 24.704C82.7829 24.7467 82.7029 24.768 82.5963 24.768C82.4949 24.768 82.3963 24.7387 82.3003 24.68C82.2043 24.616 82.0896 24.5467 81.9563 24.472C81.8229 24.392 81.6629 24.3227 81.4763 24.264C81.2949 24.2 81.0683 24.168 80.7963 24.168C80.4496 24.168 80.1456 24.232 79.8843 24.36C79.6229 24.4827 79.4043 24.6613 79.2283 24.896C79.0576 25.1307 78.9296 25.416 78.8443 25.752C78.7589 26.0827 78.7163 26.4587 78.7163 26.88C78.7163 27.3173 78.7616 27.7067 78.8523 28.048C78.9483 28.3893 79.0843 28.6773 79.2603 28.912C79.4363 29.1413 79.6496 29.3173 79.9003 29.44C80.1509 29.5573 80.4336 29.616 80.7483 29.616C81.0629 29.616 81.3163 29.5787 81.5083 29.504C81.7056 29.424 81.8709 29.3387 82.0043 29.248C82.1376 29.152 82.2523 29.0667 82.3483 28.992C82.4496 28.912 82.5616 28.872 82.6843 28.872C82.8443 28.872 82.9643 28.9333 83.0443 29.056L83.6123 29.776C83.3936 30.032 83.1563 30.248 82.9003 30.424C82.6443 30.5947 82.3776 30.7333 82.1003 30.84C81.8283 30.9413 81.5456 31.0133 81.2523 31.056C80.9643 31.0987 80.6763 31.12 80.3883 31.12C79.8816 31.12 79.4043 31.0267 78.9563 30.84C78.5083 30.648 78.1163 30.3707 77.7803 30.008C77.4443 29.6453 77.1776 29.2027 76.9803 28.68C76.7883 28.152 76.6923 27.552 76.6923 26.88C76.6923 26.2773 76.7776 25.72 76.9483 25.208C77.1243 24.6907 77.3803 24.2453 77.7163 23.872C78.0523 23.4933 78.4683 23.1973 78.9643 22.984C79.4603 22.7707 80.0309 22.664 80.6762 22.664C81.2896 22.664 81.8256 22.7627 82.2843 22.96C82.7483 23.1573 83.1643 23.44 83.5323 23.808L83.0123 24.528ZM86.827 23.672C87.147 23.3733 87.499 23.1307 87.883 22.944C88.267 22.7573 88.7177 22.664 89.235 22.664C89.683 22.664 90.0803 22.7413 90.427 22.896C90.7737 23.0453 91.0617 23.2587 91.291 23.536C91.5257 23.808 91.7017 24.136 91.819 24.52C91.9417 24.8987 92.003 25.3173 92.003 25.776V31H90.027V25.776C90.027 25.2747 89.9123 24.888 89.683 24.616C89.4537 24.3387 89.1043 24.2 88.635 24.2C88.2937 24.2 87.9737 24.2773 87.675 24.432C87.3763 24.5867 87.0937 24.7973 86.827 25.064V31H84.851V19.112H86.827V23.672Z" fill="black"/>
<rect x="303" y="1" width="50" height="48" rx="14" fill="#F0522F"/>
<path d="M329.417 15.0833H342.167V17.9167H329.417V15.0833ZM313.833 17.9167H323.75V20.75H326.583V12.25H323.75V15.0833H313.833V17.9167ZM323.75 32.0833H342.167V34.9167H323.75V32.0833ZM337.917 23.5833H342.167V26.4167H337.917V23.5833ZM335.083 29.25V20.767H332.25V23.5833H313.833V26.4167H332.25V29.25H335.083ZM320.917 37.75V29.25H318.083V32.0833H313.833V34.9167H318.083V37.75H320.917Z" fill="white"/>
</svg>
